# MagicaVoxel @ Ephtracy

# group
o 

# material
mtllib axe.mtl
usemtl palette

# normals
vn -1 0 0
vn 1 0 0
vn 0 0 1
vn 0 0 -1
vn 0 -1 0
vn 0 1 0

# texcoords
vt 0.970703 0.5
vt 0.974609 0.5
vt 0.978516 0.5
vt 0.982422 0.5
vt 0.990234 0.5

# verts
v -0.5 2.7 0.1
v -0.5 2.7 -0.1
v -0.5 2.9 0.1
v -0.5 2.9 -0.1
v -0.4 2.6 0.1
v -0.4 2.6 -0.1
v -0.4 2.7 0.2
v -0.4 2.7 0.1
v -0.4 2.7 -0.1
v -0.4 2.7 -0.2
v -0.4 2.9 0.2
v -0.4 2.9 0.1
v -0.4 2.9 -0.1
v -0.4 2.9 -0.2
v -0.4 3 0.1
v -0.4 3 -0.1
v -0.3 2.1 0.1
v -0.3 2.1 -0.1
v -0.3 2.6 0.2
v -0.3 2.6 0.1
v -0.3 2.6 -0.1
v -0.3 2.6 -0.2
v -0.3 2.7 0.3
v -0.3 2.7 0.2
v -0.3 2.7 0.1
v -0.3 2.7 -0.1
v -0.3 2.7 -0.2
v -0.3 2.7 -0.3
v -0.3 2.9 0.3
v -0.3 2.9 0.2
v -0.3 2.9 0.1
v -0.3 2.9 -0.1
v -0.3 2.9 -0.2
v -0.3 2.9 -0.3
v -0.3 3 0.2
v -0.3 3 0.1
v -0.3 3 -0.1
v -0.3 3 -0.2
v -0.3 3.1 0.1
v -0.3 3.1 -0.1
v -0.2 0.3 0.1
v -0.2 0.3 -0.1
v -0.2 1.2 0.1
v -0.2 1.2 -0.1
v -0.2 1.8 0.2
v -0.2 1.8 0.1
v -0.2 1.8 -0.1
v -0.2 1.8 -0.2
v -0.2 1.9 0.1
v -0.2 1.9 -0.1
v -0.2 2.1 0.1
v -0.2 2.1 -0.1
v -0.2 2.2 0.2
v -0.2 2.2 0.1
v -0.2 2.2 -0.1
v -0.2 2.2 -0.2
v -0.2 2.6 0.3
v -0.2 2.6 0.2
v -0.2 2.6 0.1
v -0.2 2.6 -0.1
v -0.2 2.6 -0.2
v -0.2 2.6 -0.3
v -0.2 2.7 0.3
v -0.2 2.7 0.2
v -0.2 2.7 -0.2
v -0.2 2.7 -0.3
v -0.2 2.9 0.3
v -0.2 2.9 0.2
v -0.2 2.9 -0.2
v -0.2 2.9 -0.3
v -0.2 3 0.3
v -0.2 3 0.2
v -0.2 3 0.1
v -0.2 3 -0.1
v -0.2 3 -0.2
v -0.2 3 -0.3
v -0.2 3.1 0.2
v -0.2 3.1 0.1
v -0.2 3.1 -0.1
v -0.2 3.1 -0.2
v -0.2 3.2 0.1
v -0.2 3.2 -0.1
v -0.1 0 0.1
v -0.1 0 -0.1
v -0.1 0.3 0.1
v -0.1 0.3 -0.1
v -0.1 0.9 0.2
v -0.1 0.9 0.1
v -0.1 0.9 -0.1
v -0.1 0.9 -0.2
v -0.1 1.2 0.1
v -0.1 1.2 -0.1
v -0.1 1.8 0.2
v -0.1 1.8 0.1
v -0.1 1.8 -0.1
v -0.1 1.8 -0.2
v -0.1 3.1 0.2
v -0.1 3.1 0.1
v -0.1 3.1 -0.1
v -0.1 3.1 -0.2
v -0.1 3.2 0.2
v -0.1 3.2 0.1
v -0.1 3.2 -0.1
v -0.1 3.2 -0.2
v 0 0 0.1
v 0 0 -0.1
v 0 0.2 0.1
v 0 0.2 -0.1
v 0 0.9 0.2
v 0 0.9 0.1
v 0 0.9 -0.1
v 0 0.9 -0.2
v 0 1.4 0.2
v 0 1.4 0.1
v 0 1.4 -0.1
v 0 1.4 -0.2
v 0 3.1 0.2
v 0 3.1 0.1
v 0 3.1 -0.1
v 0 3.1 -0.2
v 0 3.2 0.2
v 0 3.2 0.1
v 0 3.2 -0.1
v 0 3.2 -0.2
v 0.1 0.2 0.1
v 0.1 0.2 -0.1
v 0.1 0.5 0.1
v 0.1 0.5 -0.1
v 0.1 0.8 0.1
v 0.1 0.8 -0.1
v 0.1 1.4 0.2
v 0.1 1.4 0.1
v 0.1 1.4 -0.1
v 0.1 1.4 -0.2
v 0.1 1.7 0.1
v 0.1 1.7 -0.1
v 0.1 2.5 0.2
v 0.1 2.5 0.1
v 0.1 2.5 -0.1
v 0.1 2.5 -0.2
v 0.1 3.1 0.1
v 0.1 3.1 -0.1
v 0.1 3.2 0.1
v 0.1 3.2 -0.1
v 0.2 1.7 0.1
v 0.2 1.7 -0.1
v 0.2 2.5 0.1
v 0.2 2.5 -0.1
v 0.3 2.5 0.2
v 0.3 2.5 0.1
v 0.3 2.5 -0.1
v 0.3 2.5 -0.2
v 0.3 2.6 0.3
v 0.3 2.6 0.2
v 0.3 2.6 0.1
v 0.3 2.6 -0.1
v 0.3 2.6 -0.2
v 0.3 2.6 -0.3
v 0.3 2.7 0.3
v 0.3 2.7 0.2
v 0.3 2.7 -0.2
v 0.3 2.7 -0.3
v 0.3 2.9 0.3
v 0.3 2.9 0.2
v 0.3 2.9 -0.2
v 0.3 2.9 -0.3
v 0.3 3 0.3
v 0.3 3 0.2
v 0.3 3 0.1
v 0.3 3 -0.1
v 0.3 3 -0.2
v 0.3 3 -0.3
v 0.3 3.1 0.2
v 0.3 3.1 0.1
v 0.3 3.1 -0.1
v 0.3 3.1 -0.2
v 0.4 2.5 0.1
v 0.4 2.5 -0.1
v 0.4 2.6 0.1
v 0.4 2.6 -0.1
v 0.4 2.7 0.3
v 0.4 2.7 0.2
v 0.4 2.7 -0.2
v 0.4 2.7 -0.3
v 0.4 2.9 0.3
v 0.4 2.9 0.2
v 0.4 2.9 -0.2
v 0.4 2.9 -0.3
v 0.4 3 0.1
v 0.4 3 -0.1
v 0.4 3.1 0.1
v 0.4 3.1 -0.1
v 0.6 2.6 0.2
v 0.6 2.6 0.1
v 0.6 2.6 -0.1
v 0.6 2.6 -0.2
v 0.6 2.7 0.2
v 0.6 2.7 0.1
v 0.6 2.7 -0.1
v 0.6 2.7 -0.2
v 0.6 2.8 0.1
v 0.6 2.8 -0.1
v 0.6 2.9 0.1
v 0.6 2.9 -0.1
v 0.6 3 0.2
v 0.6 3 0.1
v 0.6 3 -0.1
v 0.6 3 -0.2
v 0.7 2.7 0.1
v 0.7 2.7 -0.1
v 0.7 2.8 0.1
v 0.7 2.8 -0.1
v 0.7 2.9 0.1
v 0.7 2.9 -0.1
v -0.3 2.7 0.3
v -0.3 2.9 0.3
v -0.2 2.6 0.3
v -0.2 2.7 0.3
v -0.2 2.9 0.3
v -0.2 3 0.3
v -0.1 2.6 0.3
v -0.1 2.9 0.3
v 0 2.6 0.3
v 0 2.7 0.3
v 0.3 2.6 0.3
v 0.3 2.7 0.3
v 0.3 2.9 0.3
v 0.3 3 0.3
v 0.4 2.7 0.3
v 0.4 2.9 0.3
v -0.4 2.7 0.2
v -0.4 2.9 0.2
v -0.3 2.6 0.2
v -0.3 2.7 0.2
v -0.3 2.9 0.2
v -0.3 3 0.2
v -0.2 1.8 0.2
v -0.2 2.2 0.2
v -0.2 2.6 0.2
v -0.2 2.7 0.2
v -0.2 2.9 0.2
v -0.2 3 0.2
v -0.2 3.1 0.2
v -0.1 0.9 0.2
v -0.1 1.8 0.2
v -0.1 2.2 0.2
v -0.1 2.6 0.2
v -0.1 3.1 0.2
v -0.1 3.2 0.2
v 0 0.9 0.2
v 0 1.4 0.2
v 0 2.5 0.2
v 0 2.6 0.2
v 0 3 0.2
v 0 3.1 0.2
v 0 3.2 0.2
v 0.1 1.4 0.2
v 0.1 2.5 0.2
v 0.1 2.6 0.2
v 0.3 2.5 0.2
v 0.3 2.6 0.2
v 0.3 2.7 0.2
v 0.3 2.9 0.2
v 0.3 3 0.2
v 0.3 3.1 0.2
v 0.4 2.7 0.2
v 0.4 2.9 0.2
v 0.6 2.6 0.2
v 0.6 2.7 0.2
v 0.6 3 0.2
v -0.5 2.7 0.1
v -0.5 2.9 0.1
v -0.4 2.6 0.1
v -0.4 2.7 0.1
v -0.4 2.9 0.1
v -0.4 3 0.1
v -0.3 2.1 0.1
v -0.3 2.6 0.1
v -0.3 2.7 0.1
v -0.3 2.9 0.1
v -0.3 3 0.1
v -0.3 3.1 0.1
v -0.2 0.3 0.1
v -0.2 1.2 0.1
v -0.2 1.8 0.1
v -0.2 2.1 0.1
v -0.2 2.2 0.1
v -0.2 2.6 0.1
v -0.2 3 0.1
v -0.2 3.1 0.1
v -0.2 3.2 0.1
v -0.1 0 0.1
v -0.1 0.3 0.1
v -0.1 0.9 0.1
v -0.1 1.2 0.1
v -0.1 1.8 0.1
v -0.1 3.1 0.1
v -0.1 3.2 0.1
v 0 0 0.1
v 0 0.2 0.1
v 0 0.3 0.1
v 0 0.5 0.1
v 0 0.8 0.1
v 0 0.9 0.1
v 0 1.4 0.1
v 0 3.1 0.1
v 0 3.2 0.1
v 0.1 0.2 0.1
v 0.1 0.5 0.1
v 0.1 0.8 0.1
v 0.1 1.4 0.1
v 0.1 1.7 0.1
v 0.1 2.5 0.1
v 0.1 3.1 0.1
v 0.1 3.2 0.1
v 0.2 1.7 0.1
v 0.2 2.5 0.1
v 0.3 2.5 0.1
v 0.3 2.6 0.1
v 0.3 3 0.1
v 0.3 3.1 0.1
v 0.4 2.5 0.1
v 0.4 2.6 0.1
v 0.4 3 0.1
v 0.4 3.1 0.1
v 0.6 2.7 0.1
v 0.6 2.8 0.1
v 0.6 2.9 0.1
v 0.7 2.7 0.1
v 0.7 2.8 0.1
v 0.7 2.9 0.1
v -0.5 2.7 -0.1
v -0.5 2.9 -0.1
v -0.4 2.6 -0.1
v -0.4 2.7 -0.1
v -0.4 2.9 -0.1
v -0.4 3 -0.1
v -0.3 2.1 -0.1
v -0.3 2.6 -0.1
v -0.3 2.7 -0.1
v -0.3 2.9 -0.1
v -0.3 3 -0.1
v -0.3 3.1 -0.1
v -0.2 0.3 -0.1
v -0.2 1.2 -0.1
v -0.2 1.8 -0.1
v -0.2 2.1 -0.1
v -0.2 2.2 -0.1
v -0.2 2.6 -0.1
v -0.2 3 -0.1
v -0.2 3.1 -0.1
v -0.2 3.2 -0.1
v -0.1 0 -0.1
v -0.1 0.3 -0.1
v -0.1 0.9 -0.1
v -0.1 1.2 -0.1
v -0.1 1.8 -0.1
v -0.1 3.1 -0.1
v -0.1 3.2 -0.1
v 0 0 -0.1
v 0 0.2 -0.1
v 0 0.3 -0.1
v 0 0.5 -0.1
v 0 0.8 -0.1
v 0 0.9 -0.1
v 0 1.4 -0.1
v 0 3.1 -0.1
v 0 3.2 -0.1
v 0.1 0.2 -0.1
v 0.1 0.5 -0.1
v 0.1 0.8 -0.1
v 0.1 1.4 -0.1
v 0.1 1.7 -0.1
v 0.1 2.5 -0.1
v 0.1 3.1 -0.1
v 0.1 3.2 -0.1
v 0.2 1.7 -0.1
v 0.2 2.5 -0.1
v 0.3 2.5 -0.1
v 0.3 2.6 -0.1
v 0.3 3 -0.1
v 0.3 3.1 -0.1
v 0.4 2.5 -0.1
v 0.4 2.6 -0.1
v 0.4 3 -0.1
v 0.4 3.1 -0.1
v 0.6 2.7 -0.1
v 0.6 2.8 -0.1
v 0.6 2.9 -0.1
v 0.7 2.7 -0.1
v 0.7 2.8 -0.1
v 0.7 2.9 -0.1
v -0.4 2.7 -0.2
v -0.4 2.9 -0.2
v -0.3 2.6 -0.2
v -0.3 2.7 -0.2
v -0.3 2.9 -0.2
v -0.3 3 -0.2
v -0.2 1.8 -0.2
v -0.2 2.2 -0.2
v -0.2 2.6 -0.2
v -0.2 2.7 -0.2
v -0.2 2.9 -0.2
v -0.2 3 -0.2
v -0.2 3.1 -0.2
v -0.1 0.9 -0.2
v -0.1 1.8 -0.2
v -0.1 2.2 -0.2
v -0.1 2.6 -0.2
v -0.1 3.1 -0.2
v -0.1 3.2 -0.2
v 0 0.9 -0.2
v 0 1.4 -0.2
v 0 2.5 -0.2
v 0 2.6 -0.2
v 0 3 -0.2
v 0 3.1 -0.2
v 0 3.2 -0.2
v 0.1 1.4 -0.2
v 0.1 2.5 -0.2
v 0.1 2.6 -0.2
v 0.3 2.5 -0.2
v 0.3 2.6 -0.2
v 0.3 2.7 -0.2
v 0.3 2.9 -0.2
v 0.3 3 -0.2
v 0.3 3.1 -0.2
v 0.4 2.7 -0.2
v 0.4 2.9 -0.2
v 0.6 2.6 -0.2
v 0.6 2.7 -0.2
v 0.6 3 -0.2
v -0.3 2.7 -0.3
v -0.3 2.9 -0.3
v -0.2 2.6 -0.3
v -0.2 2.7 -0.3
v -0.2 2.9 -0.3
v -0.2 3 -0.3
v -0.1 2.6 -0.3
v -0.1 2.9 -0.3
v 0 2.6 -0.3
v 0 2.7 -0.3
v 0.3 2.6 -0.3
v 0.3 2.7 -0.3
v 0.3 2.9 -0.3
v 0.3 3 -0.3
v 0.4 2.7 -0.3
v 0.4 2.9 -0.3
v -0.1 0 0.1
v 0 0 0.1
v -0.1 0 -0.1
v 0 0 -0.1
v 0 0.2 0.1
v 0.1 0.2 0.1
v 0 0.2 -0.1
v 0.1 0.2 -0.1
v -0.2 0.3 0.1
v -0.1 0.3 0.1
v -0.2 0.3 -0.1
v -0.1 0.3 -0.1
v -0.1 0.9 0.2
v 0 0.9 0.2
v -0.1 0.9 0.1
v 0 0.9 0.1
v -0.1 0.9 -0.1
v 0 0.9 -0.1
v -0.1 0.9 -0.2
v 0 0.9 -0.2
v 0 1.4 0.2
v 0.1 1.4 0.2
v 0 1.4 0.1
v 0.1 1.4 0.1
v 0 1.4 -0.1
v 0.1 1.4 -0.1
v 0 1.4 -0.2
v 0.1 1.4 -0.2
v 0.1 1.7 0.1
v 0.2 1.7 0.1
v 0.1 1.7 -0.1
v 0.2 1.7 -0.1
v -0.2 1.8 0.2
v -0.1 1.8 0.2
v -0.2 1.8 0.1
v -0.1 1.8 0.1
v -0.2 1.8 -0.1
v -0.1 1.8 -0.1
v -0.2 1.8 -0.2
v -0.1 1.8 -0.2
v -0.3 2.1 0.1
v -0.2 2.1 0.1
v -0.3 2.1 -0.1
v -0.2 2.1 -0.1
v 0.1 2.5 0.2
v 0.3 2.5 0.2
v 0.1 2.5 0.1
v 0.2 2.5 0.1
v 0.3 2.5 0.1
v 0.4 2.5 0.1
v 0.1 2.5 -0.1
v 0.2 2.5 -0.1
v 0.3 2.5 -0.1
v 0.4 2.5 -0.1
v 0.1 2.5 -0.2
v 0.3 2.5 -0.2
v -0.2 2.6 0.3
v -0.1 2.6 0.3
v 0 2.6 0.3
v 0.3 2.6 0.3
v -0.3 2.6 0.2
v -0.2 2.6 0.2
v -0.1 2.6 0.2
v 0 2.6 0.2
v 0.1 2.6 0.2
v 0.3 2.6 0.2
v 0.6 2.6 0.2
v -0.4 2.6 0.1
v -0.3 2.6 0.1
v -0.2 2.6 0.1
v 0.3 2.6 0.1
v 0.4 2.6 0.1
v 0.5 2.6 0.1
v 0.6 2.6 0.1
v -0.4 2.6 -0.1
v -0.3 2.6 -0.1
v -0.2 2.6 -0.1
v 0.3 2.6 -0.1
v 0.4 2.6 -0.1
v 0.5 2.6 -0.1
v 0.6 2.6 -0.1
v -0.3 2.6 -0.2
v -0.2 2.6 -0.2
v -0.1 2.6 -0.2
v 0 2.6 -0.2
v 0.1 2.6 -0.2
v 0.3 2.6 -0.2
v 0.6 2.6 -0.2
v -0.2 2.6 -0.3
v -0.1 2.6 -0.3
v 0 2.6 -0.3
v 0.3 2.6 -0.3
v -0.3 2.7 0.3
v -0.2 2.7 0.3
v 0.3 2.7 0.3
v 0.4 2.7 0.3
v -0.4 2.7 0.2
v -0.3 2.7 0.2
v -0.2 2.7 0.2
v 0.3 2.7 0.2
v 0.4 2.7 0.2
v -0.5 2.7 0.1
v -0.4 2.7 0.1
v -0.3 2.7 0.1
v 0.6 2.7 0.1
v 0.7 2.7 0.1
v -0.5 2.7 -0.1
v -0.4 2.7 -0.1
v -0.3 2.7 -0.1
v 0.6 2.7 -0.1
v 0.7 2.7 -0.1
v -0.4 2.7 -0.2
v -0.3 2.7 -0.2
v -0.2 2.7 -0.2
v 0.3 2.7 -0.2
v 0.4 2.7 -0.2
v -0.3 2.7 -0.3
v -0.2 2.7 -0.3
v 0.3 2.7 -0.3
v 0.4 2.7 -0.3
v -0.3 2.9 0.3
v -0.2 2.9 0.3
v 0.3 2.9 0.3
v 0.4 2.9 0.3
v -0.4 2.9 0.2
v -0.3 2.9 0.2
v -0.2 2.9 0.2
v 0.3 2.9 0.2
v 0.4 2.9 0.2
v -0.5 2.9 0.1
v -0.4 2.9 0.1
v -0.3 2.9 0.1
v 0.6 2.9 0.1
v 0.7 2.9 0.1
v -0.5 2.9 -0.1
v -0.4 2.9 -0.1
v -0.3 2.9 -0.1
v 0.6 2.9 -0.1
v 0.7 2.9 -0.1
v -0.4 2.9 -0.2
v -0.3 2.9 -0.2
v -0.2 2.9 -0.2
v 0.3 2.9 -0.2
v 0.4 2.9 -0.2
v -0.3 2.9 -0.3
v -0.2 2.9 -0.3
v 0.3 2.9 -0.3
v 0.4 2.9 -0.3
v -0.2 3 0.3
v 0.3 3 0.3
v -0.3 3 0.2
v -0.2 3 0.2
v 0 3 0.2
v 0.3 3 0.2
v 0.6 3 0.2
v -0.4 3 0.1
v -0.3 3 0.1
v -0.2 3 0.1
v 0.3 3 0.1
v 0.4 3 0.1
v 0.6 3 0.1
v -0.4 3 -0.1
v -0.3 3 -0.1
v -0.2 3 -0.1
v 0.3 3 -0.1
v 0.4 3 -0.1
v 0.6 3 -0.1
v -0.3 3 -0.2
v -0.2 3 -0.2
v 0 3 -0.2
v 0.3 3 -0.2
v 0.6 3 -0.2
v -0.2 3 -0.3
v 0.3 3 -0.3
v -0.2 3.1 0.2
v -0.1 3.1 0.2
v 0 3.1 0.2
v 0.3 3.1 0.2
v -0.3 3.1 0.1
v -0.2 3.1 0.1
v -0.1 3.1 0.1
v 0 3.1 0.1
v 0.1 3.1 0.1
v 0.3 3.1 0.1
v 0.4 3.1 0.1
v -0.3 3.1 -0.1
v -0.2 3.1 -0.1
v -0.1 3.1 -0.1
v 0 3.1 -0.1
v 0.1 3.1 -0.1
v 0.3 3.1 -0.1
v 0.4 3.1 -0.1
v -0.2 3.1 -0.2
v -0.1 3.1 -0.2
v 0 3.1 -0.2
v 0.3 3.1 -0.2
v -0.1 3.2 0.2
v 0 3.2 0.2
v -0.2 3.2 0.1
v -0.1 3.2 0.1
v 0 3.2 0.1
v 0.1 3.2 0.1
v -0.2 3.2 -0.1
v -0.1 3.2 -0.1
v 0 3.2 -0.1
v 0.1 3.2 -0.1
v -0.1 3.2 -0.2
v 0 3.2 -0.2

# faces
f 3/3/1 2/3/1 1/3/1
f 4/3/1 2/3/1 3/3/1
f 8/2/1 6/2/1 5/2/1
f 9/2/1 6/2/1 8/2/1
f 11/3/1 8/3/1 7/3/1
f 12/3/1 8/3/1 11/3/1
f 13/3/1 10/3/1 9/3/1
f 14/3/1 10/3/1 13/3/1
f 15/2/1 13/2/1 12/2/1
f 16/2/1 13/2/1 15/2/1
f 20/5/1 18/5/1 17/5/1
f 21/5/1 18/5/1 20/5/1
f 24/3/1 20/3/1 19/3/1
f 25/3/1 20/3/1 24/3/1
f 26/3/1 22/3/1 21/3/1
f 27/3/1 22/3/1 26/3/1
f 29/3/1 24/3/1 23/3/1
f 30/3/1 24/3/1 29/3/1
f 33/3/1 28/3/1 27/3/1
f 34/3/1 28/3/1 33/3/1
f 35/3/1 31/3/1 30/3/1
f 36/3/1 31/3/1 35/3/1
f 37/3/1 33/3/1 32/3/1
f 38/3/1 33/3/1 37/3/1
f 39/2/1 37/2/1 36/2/1
f 40/2/1 37/2/1 39/2/1
f 43/1/1 42/1/1 41/1/1
f 44/1/1 42/1/1 43/1/1
f 46/5/1 44/5/1 43/5/1
f 47/5/1 44/5/1 46/5/1
f 49/1/1 47/1/1 46/1/1
f 49/1/1 48/1/1 47/1/1
f 49/1/1 46/1/1 45/1/1
f 50/1/1 48/1/1 49/1/1
f 51/1/1 49/1/1 45/1/1
f 51/5/1 50/5/1 49/5/1
f 52/1/1 48/1/1 50/1/1
f 52/5/1 50/5/1 51/5/1
f 53/1/1 51/1/1 45/1/1
f 54/1/1 51/1/1 53/1/1
f 55/1/1 48/1/1 52/1/1
f 56/1/1 48/1/1 55/1/1
f 58/5/1 54/5/1 53/5/1
f 59/5/1 54/5/1 58/5/1
f 60/5/1 56/5/1 55/5/1
f 61/5/1 56/5/1 60/5/1
f 63/3/1 58/3/1 57/3/1
f 64/3/1 58/3/1 63/3/1
f 65/3/1 62/3/1 61/3/1
f 66/3/1 62/3/1 65/3/1
f 71/3/1 68/3/1 67/3/1
f 72/3/1 68/3/1 71/3/1
f 75/3/1 70/3/1 69/3/1
f 76/3/1 70/3/1 75/3/1
f 77/2/1 73/2/1 72/2/1
f 78/2/1 73/2/1 77/2/1
f 79/2/1 75/2/1 74/2/1
f 80/2/1 75/2/1 79/2/1
f 81/5/1 79/5/1 78/5/1
f 82/5/1 79/5/1 81/5/1
f 85/5/1 84/5/1 83/5/1
f 86/5/1 84/5/1 85/5/1
f 91/1/1 88/1/1 87/1/1
f 92/1/1 90/1/1 89/1/1
f 93/1/1 91/1/1 87/1/1
f 94/1/1 91/1/1 93/1/1
f 95/1/1 90/1/1 92/1/1
f 96/1/1 90/1/1 95/1/1
f 101/5/1 98/5/1 97/5/1
f 102/5/1 98/5/1 101/5/1
f 103/5/1 100/5/1 99/5/1
f 104/5/1 100/5/1 103/5/1
f 105/5/2 106/5/2 107/5/2
f 107/5/2 106/5/2 108/5/2
f 109/1/2 110/1/2 113/1/2
f 113/1/2 110/1/2 114/1/2
f 111/1/2 112/1/2 115/1/2
f 115/1/2 112/1/2 116/1/2
f 117/5/2 118/5/2 121/5/2
f 121/5/2 118/5/2 122/5/2
f 119/5/2 120/5/2 123/5/2
f 123/5/2 120/5/2 124/5/2
f 125/5/2 126/5/2 127/5/2
f 127/5/2 126/5/2 128/5/2
f 127/1/2 128/1/2 129/1/2
f 129/1/2 128/1/2 130/1/2
f 129/5/2 130/5/2 132/5/2
f 132/5/2 130/5/2 133/5/2
f 132/1/2 133/1/2 135/1/2
f 133/1/2 134/1/2 135/1/2
f 131/1/2 132/1/2 135/1/2
f 135/1/2 134/1/2 136/1/2
f 131/1/2 135/1/2 137/1/2
f 137/1/2 135/1/2 138/1/2
f 136/1/2 134/1/2 139/1/2
f 139/1/2 134/1/2 140/1/2
f 141/5/2 142/5/2 143/5/2
f 143/5/2 142/5/2 144/5/2
f 145/5/2 146/5/2 147/5/2
f 147/5/2 146/5/2 148/5/2
f 149/4/2 150/4/2 154/4/2
f 154/4/2 150/4/2 155/4/2
f 151/4/2 152/4/2 156/4/2
f 156/4/2 152/4/2 157/4/2
f 153/3/2 154/3/2 159/3/2
f 159/3/2 154/3/2 160/3/2
f 157/3/2 158/3/2 161/3/2
f 161/3/2 158/3/2 162/3/2
f 163/3/2 164/3/2 167/3/2
f 167/3/2 164/3/2 168/3/2
f 165/3/2 166/3/2 171/3/2
f 171/3/2 166/3/2 172/3/2
f 168/3/2 169/3/2 173/3/2
f 173/3/2 169/3/2 174/3/2
f 170/3/2 171/3/2 175/3/2
f 175/3/2 171/3/2 176/3/2
f 177/4/2 178/4/2 179/4/2
f 179/4/2 178/4/2 180/4/2
f 181/3/2 182/3/2 185/3/2
f 185/3/2 182/3/2 186/3/2
f 183/3/2 184/3/2 187/3/2
f 187/3/2 184/3/2 188/3/2
f 189/3/2 190/3/2 191/3/2
f 191/3/2 190/3/2 192/3/2
f 193/3/2 194/3/2 197/3/2
f 194/4/2 195/4/2 198/4/2
f 197/3/2 194/3/2 198/3/2
f 195/3/2 196/3/2 199/3/2
f 198/4/2 195/4/2 199/4/2
f 199/3/2 196/3/2 200/3/2
f 197/4/2 198/4/2 201/4/2
f 199/4/2 200/4/2 202/4/2
f 197/4/2 201/4/2 203/4/2
f 202/4/2 200/4/2 204/4/2
f 197/4/2 203/4/2 205/4/2
f 203/3/2 204/3/2 206/3/2
f 205/4/2 203/4/2 206/4/2
f 204/4/2 200/4/2 207/4/2
f 206/3/2 204/3/2 207/3/2
f 207/4/2 200/4/2 208/4/2
f 209/4/2 210/4/2 211/4/2
f 211/4/2 210/4/2 212/4/2
f 211/3/2 212/3/2 213/3/2
f 213/3/2 212/3/2 214/3/2
f 218/3/3 216/3/3 215/3/3
f 219/3/3 216/3/3 218/3/3
f 221/3/3 218/3/3 217/3/3
f 221/3/3 220/3/3 219/3/3
f 221/3/3 219/3/3 218/3/3
f 222/3/3 220/3/3 221/3/3
f 223/2/3 222/2/3 221/2/3
f 224/2/3 222/2/3 223/2/3
f 225/3/3 224/3/3 223/3/3
f 226/2/3 222/2/3 224/2/3
f 226/3/3 224/3/3 225/3/3
f 227/3/3 220/3/3 222/3/3
f 227/2/3 222/2/3 226/2/3
f 228/3/3 220/3/3 227/3/3
f 229/3/3 227/3/3 226/3/3
f 230/3/3 227/3/3 229/3/3
f 234/3/3 232/3/3 231/3/3
f 235/3/3 232/3/3 234/3/3
f 239/3/3 234/3/3 233/3/3
f 240/3/3 234/3/3 239/3/3
f 241/3/3 236/3/3 235/3/3
f 242/3/3 236/3/3 241/3/3
f 245/1/3 238/1/3 237/1/3
f 246/5/3 239/5/3 238/5/3
f 246/1/3 238/1/3 245/1/3
f 247/5/3 239/5/3 246/5/3
f 248/2/3 243/2/3 242/2/3
f 250/1/3 247/1/3 246/1/3
f 250/1/3 245/1/3 244/1/3
f 250/1/3 246/1/3 245/1/3
f 251/1/3 247/1/3 250/1/3
f 252/1/3 247/1/3 251/1/3
f 253/1/3 247/1/3 252/1/3
f 254/2/3 248/2/3 242/2/3
f 255/5/3 249/5/3 248/5/3
f 255/2/3 248/2/3 254/2/3
f 256/5/3 249/5/3 255/5/3
f 257/1/3 252/1/3 251/1/3
f 258/5/3 253/5/3 252/5/3
f 258/1/3 252/1/3 257/1/3
f 259/5/3 253/5/3 258/5/3
f 260/4/3 259/4/3 258/4/3
f 261/4/3 259/4/3 260/4/3
f 264/3/3 255/3/3 254/3/3
f 265/3/3 255/3/3 264/3/3
f 266/3/3 262/3/3 261/3/3
f 267/4/3 264/4/3 263/4/3
f 268/3/3 266/3/3 261/3/3
f 269/4/3 267/4/3 266/4/3
f 269/3/3 266/3/3 268/3/3
f 270/4/3 264/4/3 267/4/3
f 270/4/3 267/4/3 269/4/3
f 274/3/3 272/3/3 271/3/3
f 275/3/3 272/3/3 274/3/3
f 278/2/3 274/2/3 273/2/3
f 279/2/3 274/2/3 278/2/3
f 280/2/3 276/2/3 275/2/3
f 281/2/3 276/2/3 280/2/3
f 286/5/3 278/5/3 277/5/3
f 287/5/3 278/5/3 286/5/3
f 288/5/3 278/5/3 287/5/3
f 289/2/3 282/2/3 281/2/3
f 290/2/3 282/2/3 289/2/3
f 293/1/3 284/1/3 283/1/3
f 294/1/3 284/1/3 293/1/3
f 295/5/3 285/5/3 284/5/3
f 295/1/3 284/1/3 294/1/3
f 296/5/3 285/5/3 295/5/3
f 297/5/3 291/5/3 290/5/3
f 298/5/3 291/5/3 297/5/3
f 299/5/3 293/5/3 292/5/3
f 300/5/3 293/5/3 299/5/3
f 301/1/3 294/1/3 293/1/3
f 301/5/3 293/5/3 300/5/3
f 302/1/3 294/1/3 301/1/3
f 303/1/3 294/1/3 302/1/3
f 304/1/3 294/1/3 303/1/3
f 308/5/3 301/5/3 300/5/3
f 308/5/3 302/5/3 301/5/3
f 309/1/3 303/1/3 302/1/3
f 309/5/3 302/5/3 308/5/3
f 310/5/3 305/5/3 304/5/3
f 310/1/3 303/1/3 309/1/3
f 310/5/3 304/5/3 303/5/3
f 311/5/3 305/5/3 310/5/3
f 314/5/3 307/5/3 306/5/3
f 315/5/3 307/5/3 314/5/3
f 316/5/3 313/5/3 312/5/3
f 317/5/3 313/5/3 316/5/3
f 322/4/3 319/4/3 318/4/3
f 323/4/3 319/4/3 322/4/3
f 324/3/3 321/3/3 320/3/3
f 325/3/3 321/3/3 324/3/3
f 329/4/3 327/4/3 326/4/3
f 330/3/3 328/3/3 327/3/3
f 330/4/3 327/4/3 329/4/3
f 331/3/3 328/3/3 330/3/3
f 332/3/4 333/3/4 335/3/4
f 335/3/4 333/3/4 336/3/4
f 334/2/4 335/2/4 339/2/4
f 339/2/4 335/2/4 340/2/4
f 336/2/4 337/2/4 341/2/4
f 341/2/4 337/2/4 342/2/4
f 338/5/4 339/5/4 347/5/4
f 347/5/4 339/5/4 348/5/4
f 348/5/4 339/5/4 349/5/4
f 342/2/4 343/2/4 350/2/4
f 350/2/4 343/2/4 351/2/4
f 344/1/4 345/1/4 354/1/4
f 354/1/4 345/1/4 355/1/4
f 345/5/4 346/5/4 356/5/4
f 355/1/4 345/1/4 356/1/4
f 356/5/4 346/5/4 357/5/4
f 351/5/4 352/5/4 358/5/4
f 358/5/4 352/5/4 359/5/4
f 353/5/4 354/5/4 360/5/4
f 360/5/4 354/5/4 361/5/4
f 354/1/4 355/1/4 362/1/4
f 361/5/4 354/5/4 362/5/4
f 362/1/4 355/1/4 363/1/4
f 363/1/4 355/1/4 364/1/4
f 364/1/4 355/1/4 365/1/4
f 361/5/4 362/5/4 369/5/4
f 362/5/4 363/5/4 369/5/4
f 363/1/4 364/1/4 370/1/4
f 369/5/4 363/5/4 370/5/4
f 365/5/4 366/5/4 371/5/4
f 370/1/4 364/1/4 371/1/4
f 364/5/4 365/5/4 371/5/4
f 371/5/4 366/5/4 372/5/4
f 367/5/4 368/5/4 375/5/4
f 375/5/4 368/5/4 376/5/4
f 373/5/4 374/5/4 377/5/4
f 377/5/4 374/5/4 378/5/4
f 379/4/4 380/4/4 383/4/4
f 383/4/4 380/4/4 384/4/4
f 381/3/4 382/3/4 385/3/4
f 385/3/4 382/3/4 386/3/4
f 387/4/4 388/4/4 390/4/4
f 388/3/4 389/3/4 391/3/4
f 390/4/4 388/4/4 391/4/4
f 391/3/4 389/3/4 392/3/4
f 393/3/4 394/3/4 396/3/4
f 396/3/4 394/3/4 397/3/4
f 395/3/4 396/3/4 401/3/4
f 401/3/4 396/3/4 402/3/4
f 397/3/4 398/3/4 403/3/4
f 403/3/4 398/3/4 404/3/4
f 399/1/4 400/1/4 407/1/4
f 400/5/4 401/5/4 408/5/4
f 407/1/4 400/1/4 408/1/4
f 408/5/4 401/5/4 409/5/4
f 404/2/4 405/2/4 410/2/4
f 408/1/4 409/1/4 412/1/4
f 406/1/4 407/1/4 412/1/4
f 407/1/4 408/1/4 412/1/4
f 412/1/4 409/1/4 413/1/4
f 413/1/4 409/1/4 414/1/4
f 414/1/4 409/1/4 415/1/4
f 404/2/4 410/2/4 416/2/4
f 410/5/4 411/5/4 417/5/4
f 416/2/4 410/2/4 417/2/4
f 417/5/4 411/5/4 418/5/4
f 413/1/4 414/1/4 419/1/4
f 414/5/4 415/5/4 420/5/4
f 419/1/4 414/1/4 420/1/4
f 420/5/4 415/5/4 421/5/4
f 420/4/4 421/4/4 422/4/4
f 422/4/4 421/4/4 423/4/4
f 416/3/4 417/3/4 426/3/4
f 426/3/4 417/3/4 427/3/4
f 423/3/4 424/3/4 428/3/4
f 425/4/4 426/4/4 429/4/4
f 423/3/4 428/3/4 430/3/4
f 428/4/4 429/4/4 431/4/4
f 430/3/4 428/3/4 431/3/4
f 429/4/4 426/4/4 432/4/4
f 431/4/4 429/4/4 432/4/4
f 433/3/4 434/3/4 436/3/4
f 436/3/4 434/3/4 437/3/4
f 435/3/4 436/3/4 439/3/4
f 437/3/4 438/3/4 439/3/4
f 436/3/4 437/3/4 439/3/4
f 439/3/4 438/3/4 440/3/4
f 439/2/4 440/2/4 441/2/4
f 441/2/4 440/2/4 442/2/4
f 441/3/4 442/3/4 443/3/4
f 442/2/4 440/2/4 444/2/4
f 443/3/4 442/3/4 444/3/4
f 440/3/4 438/3/4 445/3/4
f 444/2/4 440/2/4 445/2/4
f 445/3/4 438/3/4 446/3/4
f 444/3/4 445/3/4 447/3/4
f 447/3/4 445/3/4 448/3/4
f 451/5/5 450/5/5 449/5/5
f 452/5/5 450/5/5 451/5/5
f 455/5/5 454/5/5 453/5/5
f 456/5/5 454/5/5 455/5/5
f 459/1/5 458/1/5 457/1/5
f 460/1/5 458/1/5 459/1/5
f 463/1/5 462/1/5 461/1/5
f 464/1/5 462/1/5 463/1/5
f 467/1/5 466/1/5 465/1/5
f 468/1/5 466/1/5 467/1/5
f 471/1/5 470/1/5 469/1/5
f 472/1/5 470/1/5 471/1/5
f 475/1/5 474/1/5 473/1/5
f 476/1/5 474/1/5 475/1/5
f 479/5/5 478/5/5 477/5/5
f 480/5/5 478/5/5 479/5/5
f 483/1/5 482/1/5 481/1/5
f 484/1/5 482/1/5 483/1/5
f 487/1/5 486/1/5 485/1/5
f 488/1/5 486/1/5 487/1/5
f 491/5/5 490/5/5 489/5/5
f 492/5/5 490/5/5 491/5/5
f 495/4/5 494/4/5 493/4/5
f 496/4/5 494/4/5 495/4/5
f 497/4/5 494/4/5 496/4/5
f 500/4/5 498/4/5 497/4/5
f 500/4/5 497/4/5 496/4/5
f 501/4/5 498/4/5 500/4/5
f 502/4/5 498/4/5 501/4/5
f 503/4/5 500/4/5 499/4/5
f 503/4/5 501/4/5 500/4/5
f 504/4/5 501/4/5 503/4/5
f 510/3/5 506/3/5 505/3/5
f 511/2/5 507/2/5 506/2/5
f 511/3/5 506/3/5 510/3/5
f 512/3/5 508/3/5 507/3/5
f 512/2/5 507/2/5 511/2/5
f 513/3/5 508/3/5 512/3/5
f 514/3/5 508/3/5 513/3/5
f 517/3/5 510/3/5 509/3/5
f 518/3/5 510/3/5 517/3/5
f 519/3/5 515/3/5 514/3/5
f 520/3/5 515/3/5 519/3/5
f 521/3/5 515/3/5 520/3/5
f 522/3/5 515/3/5 521/3/5
f 523/2/5 517/2/5 516/2/5
f 524/2/5 517/2/5 523/2/5
f 527/2/5 521/2/5 520/2/5
f 528/4/5 522/4/5 521/4/5
f 528/2/5 521/2/5 527/2/5
f 529/4/5 522/4/5 528/4/5
f 530/3/5 525/3/5 524/3/5
f 531/3/5 525/3/5 530/3/5
f 535/3/5 527/3/5 526/3/5
f 535/3/5 529/3/5 528/3/5
f 535/3/5 528/3/5 527/3/5
f 536/3/5 529/3/5 535/3/5
f 537/3/5 532/3/5 531/3/5
f 538/2/5 533/2/5 532/2/5
f 538/3/5 532/3/5 537/3/5
f 539/3/5 534/3/5 533/3/5
f 539/2/5 533/2/5 538/2/5
f 539/3/5 535/3/5 534/3/5
f 540/3/5 535/3/5 539/3/5
f 546/3/5 542/3/5 541/3/5
f 547/3/5 542/3/5 546/3/5
f 548/3/5 544/3/5 543/3/5
f 549/3/5 544/3/5 548/3/5
f 551/3/5 546/3/5 545/3/5
f 552/3/5 546/3/5 551/3/5
f 555/3/5 551/3/5 550/3/5
f 556/3/5 551/3/5 555/3/5
f 558/4/5 554/4/5 553/4/5
f 559/4/5 554/4/5 558/4/5
f 560/3/5 557/3/5 556/3/5
f 561/3/5 557/3/5 560/3/5
f 565/3/5 562/3/5 561/3/5
f 566/3/5 562/3/5 565/3/5
f 567/3/5 564/3/5 563/3/5
f 568/3/5 564/3/5 567/3/5
f 569/3/6 570/3/6 574/3/6
f 574/3/6 570/3/6 575/3/6
f 571/3/6 572/3/6 576/3/6
f 576/3/6 572/3/6 577/3/6
f 573/3/6 574/3/6 579/3/6
f 579/3/6 574/3/6 580/3/6
f 578/3/6 579/3/6 583/3/6
f 583/3/6 579/3/6 584/3/6
f 581/3/6 582/3/6 586/3/6
f 586/3/6 582/3/6 587/3/6
f 584/3/6 585/3/6 588/3/6
f 588/3/6 585/3/6 589/3/6
f 589/3/6 590/3/6 593/3/6
f 593/3/6 590/3/6 594/3/6
f 591/3/6 592/3/6 595/3/6
f 595/3/6 592/3/6 596/3/6
f 597/3/6 598/3/6 600/3/6
f 600/3/6 598/3/6 601/3/6
f 601/3/6 598/3/6 602/3/6
f 599/3/6 600/3/6 605/3/6
f 605/3/6 600/3/6 606/3/6
f 602/4/6 603/4/6 607/4/6
f 607/4/6 603/4/6 608/4/6
f 608/4/6 603/4/6 609/4/6
f 604/2/6 605/2/6 610/2/6
f 610/2/6 605/2/6 611/2/6
f 608/3/6 609/3/6 614/3/6
f 614/3/6 609/3/6 615/3/6
f 611/3/6 612/3/6 616/3/6
f 616/3/6 612/3/6 617/3/6
f 614/4/6 615/4/6 619/4/6
f 613/4/6 614/4/6 619/4/6
f 619/4/6 615/4/6 620/4/6
f 617/3/6 618/3/6 621/3/6
f 618/3/6 619/3/6 621/3/6
f 621/3/6 619/3/6 622/3/6
f 623/2/6 624/2/6 628/2/6
f 628/2/6 624/2/6 629/2/6
f 625/3/6 626/3/6 630/3/6
f 630/3/6 626/3/6 631/3/6
f 631/3/6 626/3/6 632/3/6
f 627/2/6 628/2/6 634/2/6
f 634/2/6 628/2/6 635/2/6
f 631/2/6 632/2/6 638/2/6
f 632/3/6 633/3/6 639/3/6
f 638/2/6 632/2/6 639/2/6
f 639/3/6 633/3/6 640/3/6
f 635/2/6 636/2/6 641/2/6
f 641/2/6 636/2/6 642/2/6
f 637/3/6 638/3/6 643/3/6
f 638/3/6 639/3/6 643/3/6
f 643/3/6 639/3/6 644/3/6
f 645/5/6 646/5/6 648/5/6
f 648/5/6 646/5/6 649/5/6
f 647/5/6 648/5/6 651/5/6
f 649/5/6 650/5/6 651/5/6
f 648/5/6 649/5/6 651/5/6
f 651/5/6 650/5/6 652/5/6
f 652/5/6 650/5/6 653/5/6
f 653/5/6 650/5/6 654/5/6
f 652/5/6 653/5/6 655/5/6
f 655/5/6 653/5/6 656/5/6
