# MagicaVoxel @ Ephtracy

# group
o 

# material
mtllib untitled-0.mtl
usemtl palette

# normals
vn -1 0 0
vn 1 0 0
vn 0 0 1
vn 0 0 -1
vn 0 -1 0
vn 0 1 0

# texcoords
vt 0.0253906 0.5
vt 0.0644531 0.5
vt 0.177734 0.5
vt 0.212891 0.5
vt 0.248047 0.5
vt 0.310547 0.5
vt 0.958984 0.5
vt 0.994141 0.5

# verts
v 4.8 3.8 -0.2
v 4.8 3.8 -0.4
v 4.8 4 0.2
v 4.8 4 -0.2
v 4.8 4.2 -0.4
v 4.8 4.2 -0.6
v 4.8 4.4 0.6
v 4.8 4.4 0.2
v 4.8 4.6 0.6
v 4.8 4.6 -0.6
v 5 3.2 0.6
v 5 3.2 0.3
v 5 3.2 -0.6
v 5 3.4 0.6
v 5 3.4 0.3
v 5 3.6 0.2
v 5 3.6 -0.2
v 5 3.8 0.2
v 5 3.8 -0.2
v 5 3.8 -0.4
v 5 3.8 -0.6
v 5 4 0.4
v 5 4 0.2
v 5 4 -0.2
v 5 4.2 0.8
v 5 4.2 0.6
v 5 4.2 0.4
v 5 4.2 -0.4
v 5 4.2 -0.6
v 5 4.4 0.6
v 5 4.4 0.2
v 5 4.6 0.8
v 5 4.6 0.6
v 5 4.6 0.2
v 5 4.6 -0.4
v 5 4.8 0.2
v 5 4.8 -0.4
v 5.2 4 -0.6
v 5.2 4 -0.8
v 5.2 4.6 -0.6
v 5.2 4.6 -0.8
v 5.3 3.1 0.6
v 5.3 3.1 0.5
v 5.3 3.2 0.6
v 5.3 3.2 0.5
v 5.4 3 0.4
v 5.4 3 -0.4
v 5.4 3.2 0.4
v 5.4 3.2 0.3
v 5.4 3.2 -0.4
v 5.4 4.6 0.4
v 5.4 4.6 0.2
v 5.4 4.8 0.4
v 5.4 4.8 0.2
v 5.8 4.4 0.8
v 5.8 4.4 0.6
v 5.8 4.6 0.8
v 5.8 4.6 0.6
v 6 3.4 0.6
v 6 3.4 0.5
v 6 3.4 0.4
v 6 3.6 0.6
v 6 3.6 0.5
v 6 3.6 0.4
v 6.4 4.2 0.8
v 6.4 4.2 0.6
v 6.4 4.4 0.8
v 6.4 4.4 0.6
v 5.2 4.2 0.8
v 5.2 4.2 0.6
v 5.2 4.4 0.6
v 5.2 4.6 0.8
v 5.2 4.6 0.6
v 5.6 3.4 0.6
v 5.6 3.4 0.5
v 5.6 3.4 0.4
v 5.6 3.6 0.6
v 5.6 3.6 0.5
v 5.6 3.6 0.4
v 6.2 3 0.4
v 6.2 3 -0.4
v 6.2 3.1 0.6
v 6.2 3.1 0.5
v 6.2 3.2 0.6
v 6.2 3.2 0.5
v 6.2 3.2 0.4
v 6.2 3.2 0.3
v 6.2 3.2 -0.4
v 6.4 4 -0.6
v 6.4 4 -0.8
v 6.4 4.6 0.4
v 6.4 4.6 -0.4
v 6.4 4.6 -0.6
v 6.4 4.6 -0.8
v 6.4 4.8 0.4
v 6.4 4.8 -0.4
v 6.6 3.2 0.6
v 6.6 3.2 0.3
v 6.6 3.2 -0.6
v 6.6 3.4 0.6
v 6.6 3.4 0.3
v 6.6 3.6 0.2
v 6.6 3.6 -0.2
v 6.6 3.8 0.2
v 6.6 3.8 -5.96046e-008
v 6.6 3.8 -0.2
v 6.6 3.8 -0.4
v 6.6 3.8 -0.6
v 6.6 4.2 0.8
v 6.6 4.2 0.6
v 6.6 4.2 0.4
v 6.6 4.2 0.2
v 6.6 4.2 -5.96046e-008
v 6.6 4.2 -0.2
v 6.6 4.4 0.6
v 6.6 4.4 0.4
v 6.6 4.4 -5.96046e-008
v 6.6 4.4 -0.2
v 6.6 4.6 0.8
v 6.6 4.6 0.6
v 6.6 4.6 -0.4
v 6.6 4.6 -0.6
v 6.8 3.8 -5.96046e-008
v 6.8 3.8 -0.4
v 6.8 4.2 0.4
v 6.8 4.2 -5.96046e-008
v 6.8 4.2 -0.2
v 6.8 4.4 0.6
v 6.8 4.4 0.4
v 6.8 4.4 -5.96046e-008
v 6.8 4.4 -0.2
v 6.8 4.6 0.6
v 6.8 4.6 -0.4
v 5 4.2 0.8
v 5 4.6 0.8
v 5.2 4.2 0.8
v 5.2 4.6 0.8
v 5.8 4.4 0.8
v 5.8 4.6 0.8
v 6.4 4.2 0.8
v 6.4 4.4 0.8
v 6.6 4.2 0.8
v 6.6 4.6 0.8
v 4.8 4.4 0.6
v 4.8 4.6 0.6
v 5 3.2 0.6
v 5 3.4 0.6
v 5 4.2 0.6
v 5 4.4 0.6
v 5 4.6 0.6
v 5.2 3.9 0.6
v 5.2 4.1 0.6
v 5.2 4.2 0.6
v 5.2 4.4 0.6
v 5.2 4.6 0.6
v 5.3 3.1 0.6
v 5.3 3.2 0.6
v 5.3 3.4 0.6
v 5.3 3.5 0.6
v 5.4 3.8 0.6
v 5.4 3.9 0.6
v 5.5 3.5 0.6
v 5.5 3.7 0.6
v 5.5 3.8 0.6
v 5.5 3.9 0.6
v 5.6 3.4 0.6
v 5.6 3.6 0.6
v 5.6 3.8 0.6
v 5.6 3.9 0.6
v 5.6 4.1 0.6
v 5.8 4.4 0.6
v 5.8 4.6 0.6
v 6 3.4 0.6
v 6 3.6 0.6
v 6 3.8 0.6
v 6 3.9 0.6
v 6 4.1 0.6
v 6.1 3.5 0.6
v 6.1 3.7 0.6
v 6.1 3.8 0.6
v 6.1 3.9 0.6
v 6.2 3.1 0.6
v 6.2 3.2 0.6
v 6.2 3.8 0.6
v 6.2 3.9 0.6
v 6.3 3.4 0.6
v 6.3 3.5 0.6
v 6.4 3.9 0.6
v 6.4 4.1 0.6
v 6.4 4.2 0.6
v 6.4 4.4 0.6
v 6.6 3.2 0.6
v 6.6 3.4 0.6
v 6.6 4.2 0.6
v 6.6 4.4 0.6
v 6.6 4.6 0.6
v 6.8 4.4 0.6
v 6.8 4.6 0.6
v 5.4 3 0.4
v 5.4 3.2 0.4
v 5.4 4.6 0.4
v 5.4 4.8 0.4
v 5.6 3.4 0.4
v 5.6 3.6 0.4
v 6 3.4 0.4
v 6 3.6 0.4
v 6.2 3 0.4
v 6.2 3.2 0.4
v 6.4 4.6 0.4
v 6.4 4.8 0.4
v 6.6 4.2 0.4
v 6.6 4.4 0.4
v 6.8 4.2 0.4
v 6.8 4.4 0.4
v 4.8 4 0.2
v 4.8 4.4 0.2
v 5 4 0.2
v 5 4.4 0.2
v 5 4.6 0.2
v 5 4.8 0.2
v 5.4 4.6 0.2
v 5.4 4.8 0.2
v 6.6 3.8 -5.96046e-008
v 6.6 4.2 -5.96046e-008
v 6.8 3.8 -5.96046e-008
v 6.8 4.2 -5.96046e-008
v 4.8 3.8 -0.2
v 4.8 4 -0.2
v 5 3.8 -0.2
v 5 4 -0.2
v 6.6 4.2 -0.2
v 6.6 4.4 -0.2
v 6.8 4.2 -0.2
v 6.8 4.4 -0.2
v 5.3 3.1 0.5
v 5.3 3.2 0.5
v 6.2 3.1 0.5
v 6.2 3.2 0.5
v 6.6 4.2 -5.96046e-008
v 6.6 4.4 -5.96046e-008
v 6.8 4.2 -5.96046e-008
v 6.8 4.4 -5.96046e-008
v 4.8 3.8 -0.4
v 4.8 4.2 -0.4
v 5 3.8 -0.4
v 5 4.2 -0.4
v 5 4.6 -0.4
v 5 4.8 -0.4
v 5.4 3 -0.4
v 5.4 3.2 -0.4
v 6.2 3 -0.4
v 6.2 3.2 -0.4
v 6.4 4.6 -0.4
v 6.4 4.8 -0.4
v 6.6 3.8 -0.4
v 6.6 4.6 -0.4
v 6.8 3.8 -0.4
v 6.8 4.6 -0.4
v 4.8 4.2 -0.6
v 4.8 4.6 -0.6
v 5 3.2 -0.6
v 5 3.8 -0.6
v 5 4.2 -0.6
v 5.2 4 -0.6
v 5.2 4.6 -0.6
v 6.4 4 -0.6
v 6.4 4.6 -0.6
v 6.6 3.2 -0.6
v 6.6 3.8 -0.6
v 6.6 4.6 -0.6
v 5.2 4 -0.8
v 5.2 4.6 -0.8
v 6.4 4 -0.8
v 6.4 4.6 -0.8
v 5.4 3 0.4
v 6.2 3 0.4
v 5.6 3 -5.96046e-008
v 6 3 -5.96046e-008
v 5.6 3 -0.2
v 6 3 -0.2
v 5.4 3 -0.4
v 6.2 3 -0.4
v 5.3 3.1 0.6
v 6.2 3.1 0.6
v 5.3 3.1 0.5
v 6.2 3.1 0.5
v 5 3.2 0.6
v 5.3 3.2 0.6
v 6.2 3.2 0.6
v 6.6 3.2 0.6
v 5.3 3.2 0.5
v 6.2 3.2 0.5
v 5.4 3.2 0.4
v 6.2 3.2 0.4
v 5 3.2 0.3
v 5.4 3.2 0.3
v 6.2 3.2 0.3
v 6.6 3.2 0.3
v 5.4 3.2 -0.4
v 6.2 3.2 -0.4
v 5 3.2 -0.6
v 6.6 3.2 -0.6
v 5.6 3.6 0.6
v 6 3.6 0.6
v 5.6 3.6 0.5
v 6 3.6 0.5
v 5.6 3.6 0.4
v 6 3.6 0.4
v 6.6 3.8 -5.96046e-008
v 6.8 3.8 -5.96046e-008
v 4.8 3.8 -0.2
v 5 3.8 -0.2
v 6.6 3.8 -0.2
v 4.8 3.8 -0.4
v 5 3.8 -0.4
v 6.6 3.8 -0.4
v 6.8 3.8 -0.4
v 4.8 4 0.2
v 5 4 0.2
v 4.8 4 -0.2
v 5 4 -0.2
v 5.2 4 -0.6
v 6.4 4 -0.6
v 5.2 4 -0.8
v 6.4 4 -0.8
v 5 4.2 0.8
v 5.2 4.2 0.8
v 6.4 4.2 0.8
v 6.6 4.2 0.8
v 5 4.2 0.6
v 5.2 4.2 0.6
v 6.4 4.2 0.6
v 6.6 4.2 0.6
v 6.6 4.2 0.4
v 6.8 4.2 0.4
v 6.6 4.2 0.2
v 6.6 4.2 -5.96046e-008
v 6.8 4.2 -5.96046e-008
v 4.8 4.2 -0.4
v 5 4.2 -0.4
v 4.8 4.2 -0.6
v 5 4.2 -0.6
v 5.8 4.4 0.8
v 6.4 4.4 0.8
v 4.8 4.4 0.6
v 5 4.4 0.6
v 5.8 4.4 0.6
v 6.4 4.4 0.6
v 6.6 4.4 0.6
v 6.8 4.4 0.6
v 6.6 4.4 0.4
v 6.8 4.4 0.4
v 4.8 4.4 0.2
v 5 4.4 0.2
v 6.6 4.4 -5.96046e-008
v 6.8 4.4 -5.96046e-008
v 6.6 4.4 -0.2
v 6.8 4.4 -0.2
v 5.6 3.4 0.6
v 6 3.4 0.6
v 5.6 3.4 0.5
v 6 3.4 0.5
v 5.6 3.4 0.4
v 6 3.4 0.4
v 6.6 4.2 -5.96046e-008
v 6.8 4.2 -5.96046e-008
v 6.6 4.2 -0.2
v 6.8 4.2 -0.2
v 5 4.6 0.8
v 5.2 4.6 0.8
v 5.8 4.6 0.8
v 6.6 4.6 0.8
v 4.8 4.6 0.6
v 5 4.6 0.6
v 5.2 4.6 0.6
v 5.8 4.6 0.6
v 6.6 4.6 0.6
v 6.8 4.6 0.6
v 5.4 4.6 0.4
v 6.4 4.6 0.4
v 5 4.6 0.2
v 5.4 4.6 0.2
v 5 4.6 -0.4
v 6.4 4.6 -0.4
v 6.6 4.6 -0.4
v 6.8 4.6 -0.4
v 4.8 4.6 -0.6
v 5.2 4.6 -0.6
v 6.4 4.6 -0.6
v 6.6 4.6 -0.6
v 5.2 4.6 -0.8
v 6.4 4.6 -0.8
v 5.4 4.8 0.4
v 6.4 4.8 0.4
v 5 4.8 0.2
v 5.4 4.8 0.2
v 5 4.8 -0.4
v 6.4 4.8 -0.4

# faces
f 4/6/1 2/6/1 1/6/1
f 5/6/1 2/6/1 4/6/1
f 5/6/1 4/6/1 3/6/1
f 8/6/1 5/6/1 3/6/1
f 8/6/1 6/6/1 5/6/1
f 9/6/1 8/6/1 7/6/1
f 10/6/1 6/6/1 8/6/1
f 10/6/1 8/6/1 9/6/1
f 14/6/1 12/6/1 11/6/1
f 15/5/1 13/5/1 12/5/1
f 15/6/1 12/6/1 14/6/1
f 16/5/1 15/5/1 14/5/1
f 16/5/1 13/5/1 15/5/1
f 17/5/1 13/5/1 16/5/1
f 18/5/1 16/5/1 14/5/1
f 18/4/1 17/4/1 16/4/1
f 19/5/1 13/5/1 17/5/1
f 19/4/1 17/4/1 18/4/1
f 20/5/1 13/5/1 19/5/1
f 21/5/1 13/5/1 20/5/1
f 22/5/1 18/5/1 14/5/1
f 23/6/1 19/6/1 18/6/1
f 23/5/1 18/5/1 22/5/1
f 24/6/1 19/6/1 23/6/1
f 26/5/1 22/5/1 14/5/1
f 27/6/1 23/6/1 22/6/1
f 27/5/1 22/5/1 26/5/1
f 28/6/1 21/6/1 20/6/1
f 29/6/1 21/6/1 28/6/1
f 30/6/1 27/6/1 26/6/1
f 30/6/1 26/6/1 25/6/1
f 31/6/1 23/6/1 27/6/1
f 31/6/1 27/6/1 30/6/1
f 32/6/1 30/6/1 25/6/1
f 33/6/1 30/6/1 32/6/1
f 36/6/1 35/6/1 34/6/1
f 37/6/1 35/6/1 36/6/1
f 40/6/1 39/6/1 38/6/1
f 41/6/1 39/6/1 40/6/1
f 44/6/1 43/6/1 42/6/1
f 45/6/1 43/6/1 44/6/1
f 48/5/1 47/5/1 46/5/1
f 49/5/1 47/5/1 48/5/1
f 50/5/1 47/5/1 49/5/1
f 53/6/1 52/6/1 51/6/1
f 54/6/1 52/6/1 53/6/1
f 57/6/1 56/6/1 55/6/1
f 58/6/1 56/6/1 57/6/1
f 62/6/1 60/6/1 59/6/1
f 63/5/1 61/5/1 60/5/1
f 63/6/1 60/6/1 62/6/1
f 64/5/1 61/5/1 63/5/1
f 67/6/1 66/6/1 65/6/1
f 68/6/1 66/6/1 67/6/1
f 69/6/2 70/6/2 71/6/2
f 69/6/2 71/6/2 72/6/2
f 72/6/2 71/6/2 73/6/2
f 74/6/2 75/6/2 77/6/2
f 75/5/2 76/5/2 78/5/2
f 77/6/2 75/6/2 78/6/2
f 78/5/2 76/5/2 79/5/2
f 82/6/2 83/6/2 84/6/2
f 84/6/2 83/6/2 85/6/2
f 80/5/2 81/5/2 86/5/2
f 86/5/2 81/5/2 87/5/2
f 87/5/2 81/5/2 88/5/2
f 89/6/2 90/6/2 93/6/2
f 93/6/2 90/6/2 94/6/2
f 91/6/2 92/6/2 95/6/2
f 95/6/2 92/6/2 96/6/2
f 97/6/2 98/6/2 100/6/2
f 98/5/2 99/5/2 101/5/2
f 100/6/2 98/6/2 101/6/2
f 100/5/2 101/5/2 102/5/2
f 101/5/2 99/5/2 102/5/2
f 102/5/2 99/5/2 103/5/2
f 100/5/2 102/5/2 104/5/2
f 102/4/2 103/4/2 104/4/2
f 104/4/2 103/4/2 105/4/2
f 103/5/2 99/5/2 106/5/2
f 105/4/2 103/4/2 106/4/2
f 106/5/2 99/5/2 107/5/2
f 107/5/2 99/5/2 108/5/2
f 100/5/2 104/5/2 110/5/2
f 110/5/2 104/5/2 111/5/2
f 104/6/2 105/6/2 112/6/2
f 111/5/2 104/5/2 112/5/2
f 112/6/2 105/6/2 113/6/2
f 110/6/2 111/6/2 115/6/2
f 109/6/2 110/6/2 115/6/2
f 115/6/2 111/6/2 116/6/2
f 113/6/2 114/6/2 117/6/2
f 117/6/2 114/6/2 118/6/2
f 109/6/2 115/6/2 119/6/2
f 119/6/2 115/6/2 120/6/2
f 107/6/2 108/6/2 121/6/2
f 121/6/2 108/6/2 122/6/2
f 123/6/2 124/6/2 126/6/2
f 126/6/2 124/6/2 127/6/2
f 125/6/2 126/6/2 129/6/2
f 129/6/2 126/6/2 130/6/2
f 127/6/2 124/6/2 131/6/2
f 129/6/2 130/6/2 132/6/2
f 130/6/2 131/6/2 132/6/2
f 128/6/2 129/6/2 132/6/2
f 131/6/2 124/6/2 133/6/2
f 132/6/2 131/6/2 133/6/2
f 136/6/3 135/6/3 134/6/3
f 137/6/3 135/6/3 136/6/3
f 141/6/3 139/6/3 138/6/3
f 142/6/3 141/6/3 140/6/3
f 143/6/3 139/6/3 141/6/3
f 143/6/3 141/6/3 142/6/3
f 149/6/3 145/6/3 144/6/3
f 150/6/3 145/6/3 149/6/3
f 151/5/3 148/5/3 147/5/3
f 152/5/3 148/5/3 151/5/3
f 153/5/3 148/5/3 152/5/3
f 157/6/3 147/6/3 146/6/3
f 158/5/3 151/5/3 147/5/3
f 158/6/3 147/6/3 157/6/3
f 159/5/3 151/5/3 158/5/3
f 160/5/3 151/5/3 159/5/3
f 161/3/3 152/3/3 151/3/3
f 161/5/3 151/5/3 160/5/3
f 162/6/3 157/6/3 156/6/3
f 162/5/3 160/5/3 159/5/3
f 162/6/3 158/6/3 157/6/3
f 162/6/3 159/6/3 158/6/3
f 163/5/3 160/5/3 162/5/3
f 164/8/3 161/8/3 160/8/3
f 164/5/3 160/5/3 163/5/3
f 165/3/3 152/3/3 161/3/3
f 165/8/3 161/8/3 164/8/3
f 166/6/3 163/6/3 162/6/3
f 166/6/3 162/6/3 156/6/3
f 167/6/3 163/6/3 166/6/3
f 168/5/3 164/5/3 163/5/3
f 168/4/3 165/4/3 164/4/3
f 169/3/3 152/3/3 165/3/3
f 169/4/3 165/4/3 168/4/3
f 170/5/3 153/5/3 152/5/3
f 170/3/3 152/3/3 169/3/3
f 170/5/3 154/5/3 153/5/3
f 171/6/3 155/6/3 154/6/3
f 171/5/3 154/5/3 170/5/3
f 171/5/3 170/5/3 169/5/3
f 171/5/3 169/5/3 168/5/3
f 172/6/3 155/6/3 171/6/3
f 173/6/3 166/6/3 156/6/3
f 174/6/3 163/6/3 167/6/3
f 175/5/3 168/5/3 163/5/3
f 175/5/3 171/5/3 168/5/3
f 176/5/3 171/5/3 175/5/3
f 177/5/3 171/5/3 176/5/3
f 178/6/3 174/6/3 173/6/3
f 179/6/3 163/6/3 174/6/3
f 179/6/3 174/6/3 178/6/3
f 179/5/3 175/5/3 163/5/3
f 180/4/3 176/4/3 175/4/3
f 180/5/3 175/5/3 179/5/3
f 181/3/3 177/3/3 176/3/3
f 181/4/3 176/4/3 180/4/3
f 182/6/3 173/6/3 156/6/3
f 182/6/3 178/6/3 173/6/3
f 183/6/3 178/6/3 182/6/3
f 184/8/3 181/8/3 180/8/3
f 184/5/3 180/5/3 179/5/3
f 184/5/3 179/5/3 178/5/3
f 185/3/3 177/3/3 181/3/3
f 185/8/3 181/8/3 184/8/3
f 186/6/3 178/6/3 183/6/3
f 187/5/3 184/5/3 178/5/3
f 187/6/3 178/6/3 186/6/3
f 187/5/3 185/5/3 184/5/3
f 188/3/3 177/3/3 185/3/3
f 188/5/3 185/5/3 187/5/3
f 188/5/3 187/5/3 186/5/3
f 189/5/3 171/5/3 177/5/3
f 189/3/3 177/3/3 188/3/3
f 190/5/3 171/5/3 189/5/3
f 191/5/3 171/5/3 190/5/3
f 192/6/3 186/6/3 183/6/3
f 193/5/3 188/5/3 186/5/3
f 193/6/3 186/6/3 192/6/3
f 193/5/3 189/5/3 188/5/3
f 193/5/3 190/5/3 189/5/3
f 194/5/3 190/5/3 193/5/3
f 197/6/3 196/6/3 195/6/3
f 198/6/3 196/6/3 197/6/3
f 205/7/3 204/7/3 203/7/3
f 206/7/3 204/7/3 205/7/3
f 207/5/3 200/5/3 199/5/3
f 208/5/3 200/5/3 207/5/3
f 209/6/3 202/6/3 201/6/3
f 210/6/3 202/6/3 209/6/3
f 213/6/3 212/6/3 211/6/3
f 214/6/3 212/6/3 213/6/3
f 217/6/3 216/6/3 215/6/3
f 218/6/3 216/6/3 217/6/3
f 221/6/3 220/6/3 219/6/3
f 222/6/3 220/6/3 221/6/3
f 225/6/3 224/6/3 223/6/3
f 226/6/3 224/6/3 225/6/3
f 229/6/3 228/6/3 227/6/3
f 230/6/3 228/6/3 229/6/3
f 233/6/3 232/6/3 231/6/3
f 234/6/3 232/6/3 233/6/3
f 235/6/4 236/6/4 237/6/4
f 237/6/4 236/6/4 238/6/4
f 239/6/4 240/6/4 241/6/4
f 241/6/4 240/6/4 242/6/4
f 243/6/4 244/6/4 245/6/4
f 245/6/4 244/6/4 246/6/4
f 249/5/4 250/5/4 251/5/4
f 251/5/4 250/5/4 252/5/4
f 247/6/4 248/6/4 253/6/4
f 253/6/4 248/6/4 254/6/4
f 255/6/4 256/6/4 257/6/4
f 257/6/4 256/6/4 258/6/4
f 259/6/4 260/6/4 263/6/4
f 262/6/4 263/6/4 264/6/4
f 263/6/4 260/6/4 265/6/4
f 264/6/4 263/6/4 265/6/4
f 262/6/4 264/6/4 266/6/4
f 261/5/4 262/5/4 268/5/4
f 266/6/4 267/6/4 269/6/4
f 268/5/4 262/5/4 269/5/4
f 262/6/4 266/6/4 269/6/4
f 269/6/4 267/6/4 270/6/4
f 271/6/4 272/6/4 273/6/4
f 273/6/4 272/6/4 274/6/4
f 277/5/5 276/5/5 275/5/5
f 278/5/5 276/5/5 277/5/5
f 279/5/5 277/5/5 275/5/5
f 279/1/5 278/1/5 277/1/5
f 280/5/5 276/5/5 278/5/5
f 280/1/5 278/1/5 279/1/5
f 281/5/5 279/5/5 275/5/5
f 281/5/5 280/5/5 279/5/5
f 282/5/5 276/5/5 280/5/5
f 282/5/5 280/5/5 281/5/5
f 285/6/5 284/6/5 283/6/5
f 286/6/5 284/6/5 285/6/5
f 291/6/5 288/6/5 287/6/5
f 292/6/5 290/6/5 289/6/5
f 293/6/5 292/6/5 291/6/5
f 294/6/5 290/6/5 292/6/5
f 294/6/5 292/6/5 293/6/5
f 295/6/5 291/6/5 287/6/5
f 295/6/5 293/6/5 291/6/5
f 296/6/5 293/6/5 295/6/5
f 297/6/5 290/6/5 294/6/5
f 298/6/5 290/6/5 297/6/5
f 299/5/5 296/5/5 295/5/5
f 300/5/5 298/5/5 297/5/5
f 301/5/5 299/5/5 295/5/5
f 301/5/5 300/5/5 299/5/5
f 302/5/5 298/5/5 300/5/5
f 302/5/5 300/5/5 301/5/5
f 305/6/5 304/6/5 303/6/5
f 306/6/5 304/6/5 305/6/5
f 307/5/5 306/5/5 305/5/5
f 308/5/5 306/5/5 307/5/5
f 313/6/5 310/6/5 309/6/5
f 314/6/5 312/6/5 311/6/5
f 315/6/5 312/6/5 314/6/5
f 316/6/5 310/6/5 313/6/5
f 317/6/5 310/6/5 316/6/5
f 320/6/5 319/6/5 318/6/5
f 321/6/5 319/6/5 320/6/5
f 324/6/5 323/6/5 322/6/5
f 325/6/5 323/6/5 324/6/5
f 330/6/5 327/6/5 326/6/5
f 331/6/5 327/6/5 330/6/5
f 332/6/5 329/6/5 328/6/5
f 333/6/5 329/6/5 332/6/5
f 336/6/5 335/6/5 334/6/5
f 337/6/5 335/6/5 336/6/5
f 338/6/5 335/6/5 337/6/5
f 341/6/5 340/6/5 339/6/5
f 342/6/5 340/6/5 341/6/5
f 347/6/5 344/6/5 343/6/5
f 348/6/5 344/6/5 347/6/5
f 351/6/5 350/6/5 349/6/5
f 352/6/5 350/6/5 351/6/5
f 353/6/5 346/6/5 345/6/5
f 354/6/5 346/6/5 353/6/5
f 357/6/5 356/6/5 355/6/5
f 358/6/5 356/6/5 357/6/5
f 359/6/6 360/6/6 361/6/6
f 361/6/6 360/6/6 362/6/6
f 361/6/6 362/6/6 363/6/6
f 363/6/6 362/6/6 364/6/6
f 365/6/6 366/6/6 367/6/6
f 367/6/6 366/6/6 368/6/6
f 369/6/6 370/6/6 374/6/6
f 374/6/6 370/6/6 375/6/6
f 371/6/6 372/6/6 376/6/6
f 376/6/6 372/6/6 377/6/6
f 374/6/6 375/6/6 379/6/6
f 377/6/6 378/6/6 379/6/6
f 376/6/6 377/6/6 379/6/6
f 375/6/6 376/6/6 379/6/6
f 373/6/6 374/6/6 379/6/6
f 379/6/6 378/6/6 380/6/6
f 373/6/6 379/6/6 381/6/6
f 381/6/6 379/6/6 382/6/6
f 373/6/6 381/6/6 383/6/6
f 380/6/6 378/6/6 384/6/6
f 384/6/6 378/6/6 385/6/6
f 385/6/6 378/6/6 386/6/6
f 373/6/6 383/6/6 387/6/6
f 383/6/6 384/6/6 387/6/6
f 384/6/6 385/6/6 387/6/6
f 387/6/6 385/6/6 388/6/6
f 388/6/6 385/6/6 389/6/6
f 389/6/6 385/6/6 390/6/6
f 388/6/6 389/6/6 391/6/6
f 391/6/6 389/6/6 392/6/6
f 393/6/6 394/6/6 396/6/6
f 395/6/6 396/6/6 397/6/6
f 396/6/6 394/6/6 398/6/6
f 397/6/6 396/6/6 398/6/6
