# MagicaVoxel @ Ephtracy

# group
o 

# material
mtllib untitled-3.mtl
usemtl palette

# normals
vn -1 0 0
vn 1 0 0
vn 0 0 1
vn 0 0 -1
vn 0 -1 0
vn 0 1 0

# texcoords
vt 0.248047 0.5
vt 0.275391 0.5

# verts
v 3 2.4 0.2
v 3 2.4 0.1
v 3 2.4 -0.1
v 3 2.4 -0.2
v 3 2.5 0.1
v 3 2.5 -0.1
v 3 2.8 0.2
v 3 2.8 -0.2
v 3.4 2.4 0.2
v 3.4 2.4 -0.2
v 3.4 2.6 0.2
v 3.4 2.6 -0.2
v 3.2 2.4 0.2
v 3.2 2.4 -0.2
v 3.2 2.6 0.2
v 3.2 2.6 -0.2
v 4.3 2.4 0.2
v 4.3 2.4 -0.2
v 4.3 2.8 0.2
v 4.3 2.8 -0.2
v 3 2.4 0.2
v 3 2.8 0.2
v 3.2 2.4 0.2
v 3.2 2.6 0.2
v 3.4 2.4 0.2
v 3.4 2.6 0.2
v 4.3 2.4 0.2
v 4.3 2.8 0.2
v 3 2.4 -0.2
v 3 2.8 -0.2
v 3.2 2.4 -0.2
v 3.2 2.6 -0.2
v 3.4 2.4 -0.2
v 3.4 2.6 -0.2
v 4.3 2.4 -0.2
v 4.3 2.8 -0.2
v 3 2.4 0.2
v 3.2 2.4 0.2
v 3.4 2.4 0.2
v 4.3 2.4 0.2
v 3 2.4 0.1
v 3.1 2.4 0.1
v 3 2.4 -0.1
v 3.1 2.4 -0.1
v 3 2.4 -0.2
v 3.2 2.4 -0.2
v 3.4 2.4 -0.2
v 4.3 2.4 -0.2
v 3.2 2.6 0.2
v 3.4 2.6 0.2
v 3.2 2.6 -0.2
v 3.4 2.6 -0.2
v 3 2.8 0.2
v 4.3 2.8 0.2
v 3 2.8 -0.2
v 4.3 2.8 -0.2

# faces
f 5/1/1 2/1/1 1/1/1
f 5/2/1 3/2/1 2/2/1
f 6/1/1 4/1/1 3/1/1
f 6/2/1 3/2/1 5/2/1
f 7/1/1 5/1/1 1/1/1
f 7/1/1 6/1/1 5/1/1
f 8/1/1 4/1/1 6/1/1
f 8/1/1 6/1/1 7/1/1
f 11/1/1 10/1/1 9/1/1
f 12/1/1 10/1/1 11/1/1
f 13/1/2 14/1/2 15/1/2
f 15/1/2 14/1/2 16/1/2
f 17/1/2 18/1/2 19/1/2
f 19/1/2 18/1/2 20/1/2
f 23/1/3 22/1/3 21/1/3
f 24/1/3 22/1/3 23/1/3
f 26/1/3 22/1/3 24/1/3
f 27/1/3 26/1/3 25/1/3
f 28/1/3 22/1/3 26/1/3
f 28/1/3 26/1/3 27/1/3
f 29/1/4 30/1/4 31/1/4
f 31/1/4 30/1/4 32/1/4
f 32/1/4 30/1/4 34/1/4
f 33/1/4 34/1/4 35/1/4
f 34/1/4 30/1/4 36/1/4
f 35/1/4 34/1/4 36/1/4
f 41/1/5 38/1/5 37/1/5
f 42/1/5 38/1/5 41/1/5
f 43/2/5 42/2/5 41/2/5
f 44/1/5 38/1/5 42/1/5
f 44/2/5 42/2/5 43/2/5
f 45/1/5 44/1/5 43/1/5
f 46/1/5 38/1/5 44/1/5
f 46/1/5 44/1/5 45/1/5
f 47/1/5 40/1/5 39/1/5
f 48/1/5 40/1/5 47/1/5
f 51/1/5 50/1/5 49/1/5
f 52/1/5 50/1/5 51/1/5
f 53/1/6 54/1/6 55/1/6
f 55/1/6 54/1/6 56/1/6
